<mxfile modified="2019-10-19T03:37:16.748Z" host="www.draw.io" agent="Mozilla/5.0 (Windows NT 10.0; Win64; x64) AppleWebKit/537.36 (KHTML, like Gecko) Chrome/77.0.3865.120 Safari/537.36" etag="LE1fRC7oGyHRfLpWUNjT" version="12.1.3" type="github" pages="2">
  <diagram name="Page-1" id="7e0a89b8-554c-2b80-1dc8-d5c74ca68de4">
    <mxGraphModel dx="2062" dy="1122" grid="1" gridSize="10" guides="1" tooltips="1" connect="1" arrows="1" fold="1" page="1" pageScale="1" pageWidth="1100" pageHeight="850" background="#ffffff" math="0" shadow="0">
      <root>
        <mxCell id="0"/>
        <mxCell id="1" parent="0"/>
        <mxCell id="fnxAtJlPScLC8XFcpCaT-1247" value="&lt;font style=&quot;font-size: 30px&quot;&gt;&amp;nbsp;DTU&lt;/font&gt;" style="rounded=0;whiteSpace=wrap;html=1;strokeColor=#6c8ebf;fillColor=#dae8fc;fontSize=20;align=left;verticalAlign=top;" parent="1" vertex="1">
          <mxGeometry x="590" y="130" width="860" height="940" as="geometry"/>
        </mxCell>
        <mxCell id="fnxAtJlPScLC8XFcpCaT-400" value="&lt;font style=&quot;font-size: 30px&quot;&gt;&amp;nbsp; &amp;nbsp; &amp;nbsp; &amp;nbsp; &amp;nbsp; CHIP&lt;/font&gt;" style="rounded=1;whiteSpace=wrap;html=1;align=left;verticalAlign=top;fontSize=25;arcSize=19;fillColor=#f5f5f5;strokeColor=#666666;fontColor=#333333;" parent="1" vertex="1">
          <mxGeometry x="680" y="171" width="750" height="889" as="geometry"/>
        </mxCell>
        <mxCell id="fnxAtJlPScLC8XFcpCaT-1179" value="&lt;font style=&quot;font-size: 25px;&quot;&gt;&amp;nbsp; &amp;nbsp; &amp;nbsp;Cluster&lt;/font&gt;" style="rounded=1;whiteSpace=wrap;html=1;align=left;verticalAlign=top;fontSize=25;" parent="1" vertex="1">
          <mxGeometry x="720" y="500" width="660" height="550" as="geometry"/>
        </mxCell>
        <mxCell id="fnxAtJlPScLC8XFcpCaT-349" style="edgeStyle=orthogonalEdgeStyle;rounded=0;orthogonalLoop=1;jettySize=auto;html=1;exitX=0.5;exitY=0;exitDx=0;exitDy=0;startArrow=open;startFill=0;endArrow=none;endFill=0;strokeColor=#000000;fontSize=20;" parent="1" source="fnxAtJlPScLC8XFcpCaT-285" edge="1">
          <mxGeometry relative="1" as="geometry">
            <mxPoint x="1013.3333740234375" y="600" as="targetPoint"/>
          </mxGeometry>
        </mxCell>
        <mxCell id="fnxAtJlPScLC8XFcpCaT-285" value="CSB" style="rounded=0;whiteSpace=wrap;html=1;align=center;fontSize=20;" parent="1" vertex="1">
          <mxGeometry x="773.3333740234375" y="660" width="50" height="30" as="geometry"/>
        </mxCell>
        <mxCell id="fnxAtJlPScLC8XFcpCaT-350" style="edgeStyle=orthogonalEdgeStyle;rounded=0;orthogonalLoop=1;jettySize=auto;html=1;exitX=0.5;exitY=0;exitDx=0;exitDy=0;startArrow=open;startFill=0;endArrow=none;endFill=0;strokeColor=#000000;fontSize=20;" parent="1" source="fnxAtJlPScLC8XFcpCaT-290" edge="1">
          <mxGeometry relative="1" as="geometry">
            <mxPoint x="1013.3333740234375" y="600" as="targetPoint"/>
          </mxGeometry>
        </mxCell>
        <mxCell id="fnxAtJlPScLC8XFcpCaT-290" value="CSB" style="rounded=0;whiteSpace=wrap;html=1;align=center;fontSize=20;" parent="1" vertex="1">
          <mxGeometry x="833.3333740234375" y="660" width="50" height="30" as="geometry"/>
        </mxCell>
        <mxCell id="fnxAtJlPScLC8XFcpCaT-351" style="edgeStyle=orthogonalEdgeStyle;rounded=0;orthogonalLoop=1;jettySize=auto;html=1;exitX=0.5;exitY=0;exitDx=0;exitDy=0;startArrow=open;startFill=0;endArrow=none;endFill=0;strokeColor=#000000;fontSize=20;" parent="1" source="fnxAtJlPScLC8XFcpCaT-291" edge="1">
          <mxGeometry relative="1" as="geometry">
            <mxPoint x="1013.3333740234375" y="600" as="targetPoint"/>
          </mxGeometry>
        </mxCell>
        <mxCell id="fnxAtJlPScLC8XFcpCaT-291" value="CSB" style="rounded=0;whiteSpace=wrap;html=1;align=center;fontSize=20;" parent="1" vertex="1">
          <mxGeometry x="893.3333740234375" y="660" width="50" height="30" as="geometry"/>
        </mxCell>
        <mxCell id="fnxAtJlPScLC8XFcpCaT-352" style="edgeStyle=orthogonalEdgeStyle;rounded=0;orthogonalLoop=1;jettySize=auto;html=1;exitX=0.5;exitY=0;exitDx=0;exitDy=0;startArrow=open;startFill=0;endArrow=none;endFill=0;strokeColor=#000000;fontSize=20;" parent="1" source="fnxAtJlPScLC8XFcpCaT-292" edge="1">
          <mxGeometry relative="1" as="geometry">
            <mxPoint x="1013.3333740234375" y="600" as="targetPoint"/>
          </mxGeometry>
        </mxCell>
        <mxCell id="fnxAtJlPScLC8XFcpCaT-292" value="CSB" style="rounded=0;whiteSpace=wrap;html=1;align=center;fontSize=20;" parent="1" vertex="1">
          <mxGeometry x="953.3333740234375" y="660" width="50" height="30" as="geometry"/>
        </mxCell>
        <mxCell id="fnxAtJlPScLC8XFcpCaT-353" style="edgeStyle=orthogonalEdgeStyle;rounded=0;orthogonalLoop=1;jettySize=auto;html=1;exitX=0.5;exitY=0;exitDx=0;exitDy=0;startArrow=open;startFill=0;endArrow=none;endFill=0;strokeColor=#000000;fontSize=20;" parent="1" source="fnxAtJlPScLC8XFcpCaT-294" edge="1">
          <mxGeometry relative="1" as="geometry">
            <mxPoint x="1013.3333740234375" y="600" as="targetPoint"/>
          </mxGeometry>
        </mxCell>
        <mxCell id="fnxAtJlPScLC8XFcpCaT-294" value="CSB" style="rounded=0;whiteSpace=wrap;html=1;align=center;fontSize=20;" parent="1" vertex="1">
          <mxGeometry x="1013.3333740234375" y="660" width="50" height="30" as="geometry"/>
        </mxCell>
        <mxCell id="fnxAtJlPScLC8XFcpCaT-354" style="edgeStyle=orthogonalEdgeStyle;rounded=0;orthogonalLoop=1;jettySize=auto;html=1;exitX=0.5;exitY=0;exitDx=0;exitDy=0;startArrow=open;startFill=0;endArrow=none;endFill=0;strokeColor=#000000;fontSize=20;" parent="1" source="fnxAtJlPScLC8XFcpCaT-295" edge="1">
          <mxGeometry relative="1" as="geometry">
            <mxPoint x="1013.3333740234375" y="600" as="targetPoint"/>
          </mxGeometry>
        </mxCell>
        <mxCell id="fnxAtJlPScLC8XFcpCaT-295" value="CSB" style="rounded=0;whiteSpace=wrap;html=1;align=center;fontSize=20;" parent="1" vertex="1">
          <mxGeometry x="1073.3333740234375" y="660" width="50" height="30" as="geometry"/>
        </mxCell>
        <mxCell id="fnxAtJlPScLC8XFcpCaT-355" style="edgeStyle=orthogonalEdgeStyle;rounded=0;orthogonalLoop=1;jettySize=auto;html=1;exitX=0.5;exitY=0;exitDx=0;exitDy=0;startArrow=open;startFill=0;endArrow=none;endFill=0;strokeColor=#000000;fontSize=20;" parent="1" source="fnxAtJlPScLC8XFcpCaT-296" edge="1">
          <mxGeometry relative="1" as="geometry">
            <mxPoint x="1013.3333740234375" y="600" as="targetPoint"/>
          </mxGeometry>
        </mxCell>
        <mxCell id="fnxAtJlPScLC8XFcpCaT-296" value="CSB" style="rounded=0;whiteSpace=wrap;html=1;align=center;fontSize=20;" parent="1" vertex="1">
          <mxGeometry x="1133.3333740234375" y="660" width="50" height="30" as="geometry"/>
        </mxCell>
        <mxCell id="fnxAtJlPScLC8XFcpCaT-356" style="edgeStyle=orthogonalEdgeStyle;rounded=0;orthogonalLoop=1;jettySize=auto;html=1;exitX=0.5;exitY=0;exitDx=0;exitDy=0;startArrow=open;startFill=0;endArrow=none;endFill=0;strokeColor=#000000;fontSize=20;" parent="1" source="fnxAtJlPScLC8XFcpCaT-297" edge="1">
          <mxGeometry relative="1" as="geometry">
            <mxPoint x="1013.3333740234375" y="600" as="targetPoint"/>
          </mxGeometry>
        </mxCell>
        <mxCell id="fnxAtJlPScLC8XFcpCaT-297" value="CSB" style="rounded=0;whiteSpace=wrap;html=1;align=center;fontSize=20;" parent="1" vertex="1">
          <mxGeometry x="1193.3333740234375" y="660" width="50" height="30" as="geometry"/>
        </mxCell>
        <mxCell id="fnxAtJlPScLC8XFcpCaT-321" style="edgeStyle=orthogonalEdgeStyle;rounded=0;orthogonalLoop=1;jettySize=auto;html=1;exitX=0.5;exitY=0;exitDx=0;exitDy=0;startArrow=open;startFill=0;endArrow=none;endFill=0;strokeColor=#000000;fontSize=20;" parent="1" source="fnxAtJlPScLC8XFcpCaT-298" edge="1">
          <mxGeometry relative="1" as="geometry">
            <mxPoint x="1044.095179966518" y="276" as="targetPoint"/>
          </mxGeometry>
        </mxCell>
        <mxCell id="fnxAtJlPScLC8XFcpCaT-1249" style="edgeStyle=orthogonalEdgeStyle;rounded=0;orthogonalLoop=1;jettySize=auto;html=1;exitX=0.5;exitY=1;exitDx=0;exitDy=0;startArrow=none;startFill=0;endArrow=open;endFill=0;strokeColor=#000000;fontSize=20;" parent="1" source="fnxAtJlPScLC8XFcpCaT-298" target="fnxAtJlPScLC8XFcpCaT-1181" edge="1">
          <mxGeometry relative="1" as="geometry">
            <Array as="points">
              <mxPoint x="830" y="450"/>
            </Array>
          </mxGeometry>
        </mxCell>
        <mxCell id="fnxAtJlPScLC8XFcpCaT-298" value="MC" style="rounded=0;whiteSpace=wrap;html=1;align=center;fontSize=20;" parent="1" vertex="1">
          <mxGeometry x="805.0951799665179" y="395" width="50" height="30" as="geometry"/>
        </mxCell>
        <mxCell id="fnxAtJlPScLC8XFcpCaT-325" style="edgeStyle=orthogonalEdgeStyle;rounded=0;orthogonalLoop=1;jettySize=auto;html=1;exitX=0.5;exitY=0;exitDx=0;exitDy=0;startArrow=open;startFill=0;endArrow=none;endFill=0;strokeColor=#000000;fontSize=20;" parent="1" source="fnxAtJlPScLC8XFcpCaT-299" edge="1">
          <mxGeometry relative="1" as="geometry">
            <mxPoint x="1044.095179966518" y="276" as="targetPoint"/>
          </mxGeometry>
        </mxCell>
        <mxCell id="fnxAtJlPScLC8XFcpCaT-299" value="MC" style="rounded=0;whiteSpace=wrap;html=1;align=center;fontSize=20;" parent="1" vertex="1">
          <mxGeometry x="865.0951799665179" y="395" width="50" height="30" as="geometry"/>
        </mxCell>
        <mxCell id="fnxAtJlPScLC8XFcpCaT-326" style="edgeStyle=orthogonalEdgeStyle;rounded=0;orthogonalLoop=1;jettySize=auto;html=1;exitX=0.5;exitY=0;exitDx=0;exitDy=0;startArrow=open;startFill=0;endArrow=none;endFill=0;strokeColor=#000000;fontSize=20;" parent="1" source="fnxAtJlPScLC8XFcpCaT-300" edge="1">
          <mxGeometry relative="1" as="geometry">
            <mxPoint x="1044.095179966518" y="276" as="targetPoint"/>
          </mxGeometry>
        </mxCell>
        <mxCell id="fnxAtJlPScLC8XFcpCaT-300" value="MC" style="rounded=0;whiteSpace=wrap;html=1;align=center;fontSize=20;" parent="1" vertex="1">
          <mxGeometry x="925.0951799665179" y="395" width="50" height="30" as="geometry"/>
        </mxCell>
        <mxCell id="fnxAtJlPScLC8XFcpCaT-327" style="edgeStyle=orthogonalEdgeStyle;rounded=0;orthogonalLoop=1;jettySize=auto;html=1;exitX=0.5;exitY=0;exitDx=0;exitDy=0;startArrow=open;startFill=0;endArrow=none;endFill=0;strokeColor=#000000;fontSize=20;" parent="1" source="fnxAtJlPScLC8XFcpCaT-301" edge="1">
          <mxGeometry relative="1" as="geometry">
            <mxPoint x="1044.095179966518" y="276" as="targetPoint"/>
          </mxGeometry>
        </mxCell>
        <mxCell id="fnxAtJlPScLC8XFcpCaT-301" value="MC" style="rounded=0;whiteSpace=wrap;html=1;align=center;fontSize=20;" parent="1" vertex="1">
          <mxGeometry x="985.0951799665179" y="395" width="50" height="30" as="geometry"/>
        </mxCell>
        <mxCell id="fnxAtJlPScLC8XFcpCaT-328" style="edgeStyle=orthogonalEdgeStyle;rounded=0;orthogonalLoop=1;jettySize=auto;html=1;exitX=0.5;exitY=0;exitDx=0;exitDy=0;startArrow=open;startFill=0;endArrow=none;endFill=0;strokeColor=#000000;fontSize=20;" parent="1" source="fnxAtJlPScLC8XFcpCaT-302" edge="1">
          <mxGeometry relative="1" as="geometry">
            <mxPoint x="1044.095179966518" y="276" as="targetPoint"/>
          </mxGeometry>
        </mxCell>
        <mxCell id="fnxAtJlPScLC8XFcpCaT-302" value="MC" style="rounded=0;whiteSpace=wrap;html=1;align=center;fontSize=20;" parent="1" vertex="1">
          <mxGeometry x="1045.095179966518" y="395" width="50" height="30" as="geometry"/>
        </mxCell>
        <mxCell id="fnxAtJlPScLC8XFcpCaT-329" style="edgeStyle=orthogonalEdgeStyle;rounded=0;orthogonalLoop=1;jettySize=auto;html=1;exitX=0.5;exitY=0;exitDx=0;exitDy=0;startArrow=open;startFill=0;endArrow=none;endFill=0;strokeColor=#000000;fontSize=20;" parent="1" source="fnxAtJlPScLC8XFcpCaT-303" edge="1">
          <mxGeometry relative="1" as="geometry">
            <mxPoint x="1044.095179966518" y="276" as="targetPoint"/>
          </mxGeometry>
        </mxCell>
        <mxCell id="fnxAtJlPScLC8XFcpCaT-303" value="MC" style="rounded=0;whiteSpace=wrap;html=1;align=center;fontSize=20;" parent="1" vertex="1">
          <mxGeometry x="1105.095179966518" y="395" width="50" height="30" as="geometry"/>
        </mxCell>
        <mxCell id="fnxAtJlPScLC8XFcpCaT-330" style="edgeStyle=orthogonalEdgeStyle;rounded=0;orthogonalLoop=1;jettySize=auto;html=1;exitX=0.5;exitY=0;exitDx=0;exitDy=0;startArrow=open;startFill=0;endArrow=none;endFill=0;strokeColor=#000000;fontSize=20;" parent="1" source="fnxAtJlPScLC8XFcpCaT-304" edge="1">
          <mxGeometry relative="1" as="geometry">
            <mxPoint x="1044.095179966518" y="276" as="targetPoint"/>
          </mxGeometry>
        </mxCell>
        <mxCell id="fnxAtJlPScLC8XFcpCaT-304" value="MC" style="rounded=0;whiteSpace=wrap;html=1;align=center;fontSize=20;" parent="1" vertex="1">
          <mxGeometry x="1165.095179966518" y="395" width="50" height="30" as="geometry"/>
        </mxCell>
        <mxCell id="fnxAtJlPScLC8XFcpCaT-322" style="edgeStyle=orthogonalEdgeStyle;rounded=0;orthogonalLoop=1;jettySize=auto;html=1;exitX=0.5;exitY=0;exitDx=0;exitDy=0;startArrow=open;startFill=0;endArrow=none;endFill=0;strokeColor=#000000;fontSize=20;" parent="1" source="fnxAtJlPScLC8XFcpCaT-305" edge="1">
          <mxGeometry relative="1" as="geometry">
            <mxPoint x="1044.095179966518" y="276" as="targetPoint"/>
          </mxGeometry>
        </mxCell>
        <mxCell id="fnxAtJlPScLC8XFcpCaT-1251" style="edgeStyle=orthogonalEdgeStyle;rounded=0;orthogonalLoop=1;jettySize=auto;html=1;exitX=0.5;exitY=1;exitDx=0;exitDy=0;startArrow=none;startFill=0;endArrow=none;endFill=0;strokeColor=#000000;fontSize=20;" parent="1" source="fnxAtJlPScLC8XFcpCaT-305" edge="1">
          <mxGeometry relative="1" as="geometry">
            <mxPoint x="830" y="450" as="targetPoint"/>
            <Array as="points">
              <mxPoint x="1250" y="450"/>
            </Array>
          </mxGeometry>
        </mxCell>
        <mxCell id="fnxAtJlPScLC8XFcpCaT-305" value="MC" style="rounded=0;whiteSpace=wrap;html=1;align=center;fontSize=20;" parent="1" vertex="1">
          <mxGeometry x="1225.095179966518" y="395" width="50" height="30" as="geometry"/>
        </mxCell>
        <mxCell id="fnxAtJlPScLC8XFcpCaT-307" value="" style="endArrow=none;html=1;strokeColor=#000000;fontSize=20;" parent="1" edge="1">
          <mxGeometry width="50" height="50" relative="1" as="geometry">
            <mxPoint x="803" y="275.5" as="sourcePoint"/>
            <mxPoint x="1420" y="276" as="targetPoint"/>
            <Array as="points"/>
          </mxGeometry>
        </mxCell>
        <mxCell id="fnxAtJlPScLC8XFcpCaT-324" value="EDF" style="text;html=1;strokeColor=none;fillColor=none;align=center;verticalAlign=middle;whiteSpace=wrap;rounded=0;fontSize=20;" parent="1" vertex="1">
          <mxGeometry x="753.0951799665179" y="266" width="40" height="20" as="geometry"/>
        </mxCell>
        <mxCell id="fnxAtJlPScLC8XFcpCaT-1190" style="edgeStyle=orthogonalEdgeStyle;rounded=0;orthogonalLoop=1;jettySize=auto;html=1;exitX=0.5;exitY=1;exitDx=0;exitDy=0;startArrow=open;startFill=0;endArrow=open;endFill=0;strokeColor=#000000;fontSize=20;" parent="1" source="fnxAtJlPScLC8XFcpCaT-332" edge="1">
          <mxGeometry relative="1" as="geometry">
            <mxPoint x="983.7586206896551" y="270" as="targetPoint"/>
          </mxGeometry>
        </mxCell>
        <mxCell id="fnxAtJlPScLC8XFcpCaT-332" value="&lt;font style=&quot;font-size: 20px&quot;&gt;ODMA&lt;/font&gt;" style="rounded=0;whiteSpace=wrap;html=1;align=center;fontSize=20;" parent="1" vertex="1">
          <mxGeometry x="929.0951799665179" y="192" width="110" height="30" as="geometry"/>
        </mxCell>
        <mxCell id="fnxAtJlPScLC8XFcpCaT-1192" style="edgeStyle=orthogonalEdgeStyle;rounded=0;orthogonalLoop=1;jettySize=auto;html=1;exitX=0.5;exitY=1;exitDx=0;exitDy=0;startArrow=open;startFill=0;endArrow=open;endFill=0;strokeColor=#000000;fontSize=20;" parent="1" source="fnxAtJlPScLC8XFcpCaT-336" edge="1">
          <mxGeometry relative="1" as="geometry">
            <mxPoint x="1103.7586206896551" y="270" as="targetPoint"/>
          </mxGeometry>
        </mxCell>
        <mxCell id="fnxAtJlPScLC8XFcpCaT-336" value="&lt;font style=&quot;font-size: 20px&quot;&gt;ODMA&lt;/font&gt;" style="rounded=0;whiteSpace=wrap;html=1;align=center;fontSize=20;" parent="1" vertex="1">
          <mxGeometry x="1049.095179966518" y="192" width="110" height="30" as="geometry"/>
        </mxCell>
        <mxCell id="fnxAtJlPScLC8XFcpCaT-337" value="" style="endArrow=none;html=1;strokeColor=#000000;fontSize=20;" parent="1" edge="1">
          <mxGeometry width="50" height="50" relative="1" as="geometry">
            <mxPoint x="800" y="600" as="sourcePoint"/>
            <mxPoint x="1380" y="600" as="targetPoint"/>
            <Array as="points"/>
          </mxGeometry>
        </mxCell>
        <mxCell id="fnxAtJlPScLC8XFcpCaT-338" value="CDF" style="text;html=1;strokeColor=none;fillColor=none;align=center;verticalAlign=middle;whiteSpace=wrap;rounded=0;fontSize=20;" parent="1" vertex="1">
          <mxGeometry x="746.8333740234375" y="590" width="40" height="20" as="geometry"/>
        </mxCell>
        <mxCell id="fnxAtJlPScLC8XFcpCaT-1232" style="edgeStyle=orthogonalEdgeStyle;rounded=0;orthogonalLoop=1;jettySize=auto;html=1;exitX=0.5;exitY=1;exitDx=0;exitDy=0;startArrow=open;startFill=0;endArrow=open;endFill=0;strokeColor=#000000;fontSize=20;" parent="1" source="fnxAtJlPScLC8XFcpCaT-339" edge="1">
          <mxGeometry relative="1" as="geometry">
            <mxPoint x="948.4285714285713" y="600" as="targetPoint"/>
          </mxGeometry>
        </mxCell>
        <mxCell id="fnxAtJlPScLC8XFcpCaT-339" value="CDMA" style="rounded=0;whiteSpace=wrap;html=1;align=center;fontSize=20;" parent="1" vertex="1">
          <mxGeometry x="893.5" y="525.1666259765625" width="110" height="30" as="geometry"/>
        </mxCell>
        <mxCell id="fnxAtJlPScLC8XFcpCaT-1233" style="edgeStyle=orthogonalEdgeStyle;rounded=0;orthogonalLoop=1;jettySize=auto;html=1;exitX=0.5;exitY=1;exitDx=0;exitDy=0;startArrow=open;startFill=0;endArrow=open;endFill=0;strokeColor=#000000;fontSize=20;" parent="1" source="fnxAtJlPScLC8XFcpCaT-340" edge="1">
          <mxGeometry relative="1" as="geometry">
            <mxPoint x="1078.7142857142858" y="600" as="targetPoint"/>
          </mxGeometry>
        </mxCell>
        <mxCell id="fnxAtJlPScLC8XFcpCaT-340" value="CDMA" style="rounded=0;whiteSpace=wrap;html=1;align=center;fontSize=20;" parent="1" vertex="1">
          <mxGeometry x="1023.5" y="525.1666259765625" width="110" height="30" as="geometry"/>
        </mxCell>
        <mxCell id="fnxAtJlPScLC8XFcpCaT-402" value="Cluster Memory(4MB SRAM)" style="rounded=0;whiteSpace=wrap;html=1;align=center;fontSize=20;" parent="1" vertex="1">
          <mxGeometry x="781.5" y="705" width="464" height="30" as="geometry"/>
        </mxCell>
        <mxCell id="fnxAtJlPScLC8XFcpCaT-1248" style="edgeStyle=orthogonalEdgeStyle;rounded=0;orthogonalLoop=1;jettySize=auto;html=1;exitX=1;exitY=0.25;exitDx=0;exitDy=0;entryX=0;entryY=0.75;entryDx=0;entryDy=0;startArrow=open;startFill=0;endArrow=open;endFill=0;strokeColor=#000000;fontSize=20;" parent="1" source="fnxAtJlPScLC8XFcpCaT-1181" target="fnxAtJlPScLC8XFcpCaT-324" edge="1">
          <mxGeometry relative="1" as="geometry"/>
        </mxCell>
        <mxCell id="fnxAtJlPScLC8XFcpCaT-1181" value="&lt;font style=&quot;font-size: 30px&quot;&gt;HBM(8G×2)&lt;/font&gt;" style="rounded=1;whiteSpace=wrap;html=1;align=center;direction=east;flipV=0;horizontal=0;fontSize=25;fillColor=#d5e8d4;strokeColor=#82b366;" parent="1" vertex="1">
          <mxGeometry x="620" y="176" width="50" height="885" as="geometry"/>
        </mxCell>
        <mxCell id="fnxAtJlPScLC8XFcpCaT-404" value="&lt;font style=&quot;font-size: 20px;&quot;&gt;&amp;nbsp; SIP&lt;/font&gt;" style="rounded=1;whiteSpace=wrap;html=1;align=left;verticalAlign=top;fontSize=20;fillColor=#f8cecc;strokeColor=#b85450;" parent="1" vertex="1">
          <mxGeometry x="740" y="770" width="600" height="260" as="geometry"/>
        </mxCell>
        <mxCell id="fnxAtJlPScLC8XFcpCaT-1243" style="edgeStyle=orthogonalEdgeStyle;rounded=0;orthogonalLoop=1;jettySize=auto;html=1;exitX=0.5;exitY=1;exitDx=0;exitDy=0;entryX=0.5;entryY=0;entryDx=0;entryDy=0;startArrow=open;startFill=0;endArrow=open;endFill=0;strokeColor=#000000;fontSize=20;" parent="1" source="fnxAtJlPScLC8XFcpCaT-361" target="fnxAtJlPScLC8XFcpCaT-369" edge="1">
          <mxGeometry relative="1" as="geometry"/>
        </mxCell>
        <mxCell id="fnxAtJlPScLC8XFcpCaT-361" value="SDMA" style="rounded=0;whiteSpace=wrap;html=1;align=center;fontSize=20;" parent="1" vertex="1">
          <mxGeometry x="1147.8880433339991" y="840.1666259765625" width="113.5570638949924" height="30" as="geometry"/>
        </mxCell>
        <mxCell id="fnxAtJlPScLC8XFcpCaT-369" value="SRAM&lt;br&gt;256K" style="rounded=0;whiteSpace=wrap;html=1;align=center;fontSize=20;horizontal=0;" parent="1" vertex="1">
          <mxGeometry x="1178.5" y="920" width="52" height="90" as="geometry"/>
        </mxCell>
        <mxCell id="fnxAtJlPScLC8XFcpCaT-378" value="" style="endArrow=none;html=1;strokeColor=#000000;fontSize=20;" parent="1" edge="1">
          <mxGeometry width="50" height="50" relative="1" as="geometry">
            <mxPoint x="807.2934777799973" y="890" as="sourcePoint"/>
            <mxPoint x="1313.998777360251" y="890" as="targetPoint"/>
            <Array as="points"/>
          </mxGeometry>
        </mxCell>
        <mxCell id="fnxAtJlPScLC8XFcpCaT-381" value="&lt;div style=&quot;text-align: justify&quot;&gt;&lt;span&gt;SRAM&lt;/span&gt;&lt;/div&gt;&lt;div style=&quot;text-align: justify&quot;&gt;&lt;span&gt;BUS&lt;/span&gt;&lt;/div&gt;" style="text;html=1;strokeColor=none;fillColor=none;align=right;verticalAlign=middle;whiteSpace=wrap;rounded=0;fontSize=20;" parent="1" vertex="1">
          <mxGeometry x="766" y="880" width="41.29347777999723" height="20" as="geometry"/>
        </mxCell>
        <mxCell id="fnxAtJlPScLC8XFcpCaT-1183" value="×8" style="text;html=1;strokeColor=none;fillColor=none;align=center;verticalAlign=middle;whiteSpace=wrap;rounded=0;fontSize=20;" parent="1" vertex="1">
          <mxGeometry x="1340" y="875" width="40" height="20" as="geometry"/>
        </mxCell>
        <mxCell id="fnxAtJlPScLC8XFcpCaT-1184" value="×4" style="text;html=1;strokeColor=none;fillColor=none;align=center;verticalAlign=middle;whiteSpace=wrap;rounded=0;fontSize=20;" parent="1" vertex="1">
          <mxGeometry x="1380" y="740" width="40" height="20" as="geometry"/>
        </mxCell>
        <mxCell id="fnxAtJlPScLC8XFcpCaT-1193" style="edgeStyle=orthogonalEdgeStyle;rounded=0;orthogonalLoop=1;jettySize=auto;html=1;exitX=0.5;exitY=1;exitDx=0;exitDy=0;startArrow=open;startFill=0;endArrow=open;endFill=0;strokeColor=#000000;fontSize=20;" parent="1" source="fnxAtJlPScLC8XFcpCaT-1185" edge="1">
          <mxGeometry relative="1" as="geometry">
            <mxPoint x="1018.9310344827586" y="170" as="targetPoint"/>
          </mxGeometry>
        </mxCell>
        <mxCell id="fnxAtJlPScLC8XFcpCaT-1185" value="&lt;font style=&quot;font-size: 35px&quot;&gt;System Memory&lt;/font&gt;" style="rounded=1;whiteSpace=wrap;html=1;fontSize=20;align=center;" parent="1" vertex="1">
          <mxGeometry x="589" y="40" width="860" height="60" as="geometry"/>
        </mxCell>
        <mxCell id="fnxAtJlPScLC8XFcpCaT-1202" value="" style="ellipse;whiteSpace=wrap;html=1;aspect=fixed;fontSize=20;align=center;fillColor=#FF0000;" parent="1" vertex="1">
          <mxGeometry x="798.5" y="629.8492257254464" width="13" height="13" as="geometry"/>
        </mxCell>
        <mxCell id="fnxAtJlPScLC8XFcpCaT-1203" value="" style="ellipse;whiteSpace=wrap;html=1;aspect=fixed;fontSize=20;align=center;fillColor=#FF0000;" parent="1" vertex="1">
          <mxGeometry x="859" y="629.8492257254464" width="13" height="13" as="geometry"/>
        </mxCell>
        <mxCell id="fnxAtJlPScLC8XFcpCaT-1204" value="" style="ellipse;whiteSpace=wrap;html=1;aspect=fixed;fontSize=20;align=center;fillColor=#FF0000;" parent="1" vertex="1">
          <mxGeometry x="917.5" y="629.8492257254464" width="13" height="13" as="geometry"/>
        </mxCell>
        <mxCell id="fnxAtJlPScLC8XFcpCaT-1205" value="" style="ellipse;whiteSpace=wrap;html=1;aspect=fixed;fontSize=20;align=center;fillColor=#FF0000;" parent="1" vertex="1">
          <mxGeometry x="978.5" y="629.8492257254464" width="13" height="13" as="geometry"/>
        </mxCell>
        <mxCell id="fnxAtJlPScLC8XFcpCaT-1206" value="" style="ellipse;whiteSpace=wrap;html=1;aspect=fixed;fontSize=20;align=center;fillColor=#FF0000;" parent="1" vertex="1">
          <mxGeometry x="1023.3174990699404" y="629.8492257254464" width="13" height="13" as="geometry"/>
        </mxCell>
        <mxCell id="fnxAtJlPScLC8XFcpCaT-1207" value="" style="ellipse;whiteSpace=wrap;html=1;aspect=fixed;fontSize=20;align=center;fillColor=#FF0000;" parent="1" vertex="1">
          <mxGeometry x="1085.3174990699404" y="629.8492257254464" width="13" height="13" as="geometry"/>
        </mxCell>
        <mxCell id="fnxAtJlPScLC8XFcpCaT-1211" value="" style="ellipse;whiteSpace=wrap;html=1;aspect=fixed;fontSize=20;align=center;fillColor=#FF0000;" parent="1" vertex="1">
          <mxGeometry x="1145.3174990699404" y="629.8492257254464" width="13" height="13" as="geometry"/>
        </mxCell>
        <mxCell id="fnxAtJlPScLC8XFcpCaT-1212" value="" style="ellipse;whiteSpace=wrap;html=1;aspect=fixed;fontSize=20;align=center;fillColor=#FF0000;" parent="1" vertex="1">
          <mxGeometry x="1204.5872628348213" y="629.8492257254464" width="13" height="13" as="geometry"/>
        </mxCell>
        <mxCell id="fnxAtJlPScLC8XFcpCaT-1217" value="" style="endArrow=none;html=1;strokeColor=#000000;fontSize=20;" parent="1" edge="1">
          <mxGeometry width="50" height="50" relative="1" as="geometry">
            <mxPoint x="803" y="308.5" as="sourcePoint"/>
            <mxPoint x="1420" y="309" as="targetPoint"/>
            <Array as="points"/>
          </mxGeometry>
        </mxCell>
        <mxCell id="fnxAtJlPScLC8XFcpCaT-1218" value="ECF" style="text;html=1;strokeColor=none;fillColor=none;align=center;verticalAlign=middle;whiteSpace=wrap;rounded=0;fontSize=20;" parent="1" vertex="1">
          <mxGeometry x="745.0951799665179" y="299" width="40" height="20" as="geometry"/>
        </mxCell>
        <mxCell id="fnxAtJlPScLC8XFcpCaT-1219" value="" style="endArrow=classic;html=1;strokeColor=#000000;fontSize=20;" parent="1" edge="1">
          <mxGeometry width="50" height="50" relative="1" as="geometry">
            <mxPoint x="1310" y="310" as="sourcePoint"/>
            <mxPoint x="1310" y="570" as="targetPoint"/>
          </mxGeometry>
        </mxCell>
        <mxCell id="fnxAtJlPScLC8XFcpCaT-1222" value="" style="ellipse;whiteSpace=wrap;html=1;aspect=fixed;fontSize=20;align=center;fillColor=#FF0000;" parent="1" vertex="1">
          <mxGeometry x="1300" y="425" width="13" height="13" as="geometry"/>
        </mxCell>
        <mxCell id="fnxAtJlPScLC8XFcpCaT-1223" value="CCF" style="text;html=1;strokeColor=none;fillColor=none;align=center;verticalAlign=middle;whiteSpace=wrap;rounded=0;fontSize=20;" parent="1" vertex="1">
          <mxGeometry x="745.3333740234375" y="560" width="40" height="20" as="geometry"/>
        </mxCell>
        <mxCell id="fnxAtJlPScLC8XFcpCaT-1224" value="" style="endArrow=none;html=1;strokeColor=#000000;fontSize=20;" parent="1" edge="1">
          <mxGeometry width="50" height="50" relative="1" as="geometry">
            <mxPoint x="802" y="569.5" as="sourcePoint"/>
            <mxPoint x="1370" y="570" as="targetPoint"/>
            <Array as="points"/>
          </mxGeometry>
        </mxCell>
        <mxCell id="fnxAtJlPScLC8XFcpCaT-1231" value="" style="ellipse;whiteSpace=wrap;html=1;aspect=fixed;fontSize=20;align=center;fillColor=#0000FF;" parent="1" vertex="1">
          <mxGeometry x="1104" y="240" width="13" height="13" as="geometry"/>
        </mxCell>
        <mxCell id="fnxAtJlPScLC8XFcpCaT-1234" value="" style="curved=1;endArrow=classic;html=1;strokeColor=#000000;fontSize=20;exitX=0.5;exitY=0;exitDx=0;exitDy=0;startArrow=open;startFill=0;" parent="1" source="fnxAtJlPScLC8XFcpCaT-340" edge="1">
          <mxGeometry width="50" height="50" relative="1" as="geometry">
            <mxPoint x="940" y="530" as="sourcePoint"/>
            <mxPoint x="1210" y="280" as="targetPoint"/>
            <Array as="points">
              <mxPoint x="1090" y="470"/>
              <mxPoint x="1250" y="480"/>
              <mxPoint x="1330" y="360"/>
            </Array>
          </mxGeometry>
        </mxCell>
        <mxCell id="fnxAtJlPScLC8XFcpCaT-1235" value="" style="ellipse;whiteSpace=wrap;html=1;aspect=fixed;fontSize=20;align=center;fillColor=#0000FF;" parent="1" vertex="1">
          <mxGeometry x="1224" y="279.4444274902344" width="13" height="13" as="geometry"/>
        </mxCell>
        <mxCell id="fnxAtJlPScLC8XFcpCaT-1236" value="" style="ellipse;whiteSpace=wrap;html=1;aspect=fixed;fontSize=20;align=center;fillColor=#0000FF;" parent="1" vertex="1">
          <mxGeometry x="1078.5" y="576.9444274902344" width="13" height="13" as="geometry"/>
        </mxCell>
        <mxCell id="fnxAtJlPScLC8XFcpCaT-1237" value="" style="curved=1;endArrow=classic;html=1;strokeColor=#000000;fontSize=20;startArrow=open;startFill=0;exitX=0.5;exitY=0;exitDx=0;exitDy=0;" parent="1" source="fnxAtJlPScLC8XFcpCaT-361" edge="1">
          <mxGeometry width="50" height="50" relative="1" as="geometry">
            <mxPoint x="1110" y="810" as="sourcePoint"/>
            <mxPoint x="1290" y="600" as="targetPoint"/>
            <Array as="points">
              <mxPoint x="1205" y="800"/>
              <mxPoint x="1210" y="780"/>
              <mxPoint x="1310" y="720"/>
            </Array>
          </mxGeometry>
        </mxCell>
        <mxCell id="fnxAtJlPScLC8XFcpCaT-1241" value="" style="ellipse;whiteSpace=wrap;html=1;aspect=fixed;fontSize=20;align=center;fillColor=#0000FF;" parent="1" vertex="1">
          <mxGeometry x="1293.357142857143" y="605.5" width="13" height="13" as="geometry"/>
        </mxCell>
        <mxCell id="fnxAtJlPScLC8XFcpCaT-1246" style="edgeStyle=orthogonalEdgeStyle;rounded=0;orthogonalLoop=1;jettySize=auto;html=1;exitX=0.5;exitY=0;exitDx=0;exitDy=0;startArrow=open;startFill=0;endArrow=open;endFill=0;strokeColor=#000000;fontSize=20;" parent="1" source="fnxAtJlPScLC8XFcpCaT-1245" edge="1">
          <mxGeometry relative="1" as="geometry">
            <mxPoint x="979" y="890" as="targetPoint"/>
          </mxGeometry>
        </mxCell>
        <mxCell id="fnxAtJlPScLC8XFcpCaT-1245" value="SIP Core" style="rounded=0;whiteSpace=wrap;html=1;align=center;fontSize=20;horizontal=1;" parent="1" vertex="1">
          <mxGeometry x="837.5" y="920" width="282" height="90" as="geometry"/>
        </mxCell>
      </root>
    </mxGraphModel>
  </diagram>
  <diagram id="oNPxg-rAgcc2HNk2N3nu" name="Page-2">
    <mxGraphModel dx="857" dy="419" grid="1" gridSize="10" guides="1" tooltips="1" connect="1" arrows="1" fold="1" page="1" pageScale="1" pageWidth="827" pageHeight="1169" math="0" shadow="0">
      <root>
        <mxCell id="wSdRm8vFtxA8m4r3ZrGF-0"/>
        <mxCell id="wSdRm8vFtxA8m4r3ZrGF-1" parent="wSdRm8vFtxA8m4r3ZrGF-0"/>
        <mxCell id="wSdRm8vFtxA8m4r3ZrGF-6" value="" style="edgeStyle=orthogonalEdgeStyle;rounded=0;orthogonalLoop=1;jettySize=auto;html=1;" parent="wSdRm8vFtxA8m4r3ZrGF-1" source="wSdRm8vFtxA8m4r3ZrGF-2" target="wSdRm8vFtxA8m4r3ZrGF-5" edge="1">
          <mxGeometry relative="1" as="geometry"/>
        </mxCell>
        <mxCell id="wSdRm8vFtxA8m4r3ZrGF-8" style="edgeStyle=orthogonalEdgeStyle;rounded=0;orthogonalLoop=1;jettySize=auto;html=1;exitX=0.5;exitY=1;exitDx=0;exitDy=0;entryX=0.5;entryY=0;entryDx=0;entryDy=0;" parent="wSdRm8vFtxA8m4r3ZrGF-1" source="wSdRm8vFtxA8m4r3ZrGF-2" target="wSdRm8vFtxA8m4r3ZrGF-7" edge="1">
          <mxGeometry relative="1" as="geometry"/>
        </mxCell>
        <mxCell id="wSdRm8vFtxA8m4r3ZrGF-2" value="BPM interface&lt;br&gt;1. BpmFuncA() = 0;&lt;br&gt;2. BpmFuncB() = 0;&lt;br&gt;3. BpmFuncC()&amp;nbsp;= 0;" style="rounded=0;whiteSpace=wrap;html=1;labelPosition=center;verticalLabelPosition=middle;align=left;verticalAlign=top;fillColor=#e1d5e7;strokeColor=#9673a6;" parent="wSdRm8vFtxA8m4r3ZrGF-1" vertex="1">
          <mxGeometry x="240" y="480" width="160" height="80" as="geometry"/>
        </mxCell>
        <mxCell id="wSdRm8vFtxA8m4r3ZrGF-7" value="B BPM implement&lt;br&gt;1. BpmFuncA();&lt;br&gt;2. BpmFuncB();&lt;br&gt;3. BpmFuncC();" style="rounded=0;whiteSpace=wrap;html=1;align=left;verticalAlign=top;fillColor=#fff2cc;strokeColor=#d6b656;" parent="wSdRm8vFtxA8m4r3ZrGF-1" vertex="1">
          <mxGeometry x="360" y="640" width="160" height="80" as="geometry"/>
        </mxCell>
        <mxCell id="wSdRm8vFtxA8m4r3ZrGF-5" value="A BPM implement&lt;br&gt;1. BpmFuncA();&lt;br&gt;2. BpmFuncB();&lt;br&gt;3. BpmFuncC();" style="rounded=0;whiteSpace=wrap;html=1;align=left;verticalAlign=top;fillColor=#fff2cc;strokeColor=#d6b656;" parent="wSdRm8vFtxA8m4r3ZrGF-1" vertex="1">
          <mxGeometry x="120" y="640" width="160" height="80" as="geometry"/>
        </mxCell>
        <mxCell id="FJkoKa2zP6TrioZ-x6MN-5" value="" style="edgeStyle=orthogonalEdgeStyle;rounded=0;orthogonalLoop=1;jettySize=auto;html=1;" parent="wSdRm8vFtxA8m4r3ZrGF-1" source="FJkoKa2zP6TrioZ-x6MN-7" target="FJkoKa2zP6TrioZ-x6MN-9" edge="1">
          <mxGeometry relative="1" as="geometry"/>
        </mxCell>
        <mxCell id="FJkoKa2zP6TrioZ-x6MN-6" style="edgeStyle=orthogonalEdgeStyle;rounded=0;orthogonalLoop=1;jettySize=auto;html=1;exitX=0.5;exitY=1;exitDx=0;exitDy=0;entryX=0.5;entryY=0;entryDx=0;entryDy=0;" parent="wSdRm8vFtxA8m4r3ZrGF-1" source="FJkoKa2zP6TrioZ-x6MN-7" target="FJkoKa2zP6TrioZ-x6MN-8" edge="1">
          <mxGeometry relative="1" as="geometry"/>
        </mxCell>
        <mxCell id="FJkoKa2zP6TrioZ-x6MN-7" value="PMC interface&lt;br&gt;1. PmcFuncA() = 0;&lt;br&gt;2. PmcFuncB() = 0;&lt;br&gt;3. PmcFuncC() = 0;" style="rounded=0;whiteSpace=wrap;html=1;labelPosition=center;verticalLabelPosition=middle;align=left;verticalAlign=top;fillColor=#e1d5e7;strokeColor=#9673a6;" parent="wSdRm8vFtxA8m4r3ZrGF-1" vertex="1">
          <mxGeometry x="720" y="480" width="160" height="80" as="geometry"/>
        </mxCell>
        <mxCell id="FJkoKa2zP6TrioZ-x6MN-8" value="B PMC implement&lt;br&gt;1. PmcFuncA();&lt;br&gt;2. PmcFuncB();&lt;br&gt;3. PmcFuncC();" style="rounded=0;whiteSpace=wrap;html=1;align=left;verticalAlign=top;fillColor=#fff2cc;strokeColor=#d6b656;" parent="wSdRm8vFtxA8m4r3ZrGF-1" vertex="1">
          <mxGeometry x="840" y="640" width="160" height="80" as="geometry"/>
        </mxCell>
        <mxCell id="FJkoKa2zP6TrioZ-x6MN-9" value="A PMC implement&lt;br&gt;1. PmcFuncA();&lt;br&gt;2. PmcFuncB();&lt;br&gt;3. PmcFuncC();" style="rounded=0;whiteSpace=wrap;html=1;align=left;verticalAlign=top;fillColor=#fff2cc;strokeColor=#d6b656;" parent="wSdRm8vFtxA8m4r3ZrGF-1" vertex="1">
          <mxGeometry x="600" y="640" width="160" height="80" as="geometry"/>
        </mxCell>
        <mxCell id="jU3aj9pWKFB-8NXjvSev-9" value="" style="edgeStyle=orthogonalEdgeStyle;rounded=0;orthogonalLoop=1;jettySize=auto;html=1;" edge="1" parent="wSdRm8vFtxA8m4r3ZrGF-1" source="FJkoKa2zP6TrioZ-x6MN-10" target="FJkoKa2zP6TrioZ-x6MN-12">
          <mxGeometry relative="1" as="geometry"/>
        </mxCell>
        <mxCell id="FJkoKa2zP6TrioZ-x6MN-10" value="Pavo Profiler {&lt;br&gt;&amp;nbsp; &amp;nbsp; BPMbehavior bpm;&lt;br&gt;&amp;nbsp; &amp;nbsp; PMCbehavior pmc;&lt;br&gt;&amp;nbsp; &amp;nbsp; TDbehavior td;&lt;br&gt;}" style="rounded=0;whiteSpace=wrap;html=1;align=left;verticalAlign=top;fillColor=#fff2cc;strokeColor=#d6b656;" parent="wSdRm8vFtxA8m4r3ZrGF-1" vertex="1">
          <mxGeometry x="480" y="280" width="160" height="120" as="geometry"/>
        </mxCell>
        <mxCell id="jU3aj9pWKFB-8NXjvSev-8" value="" style="edgeStyle=orthogonalEdgeStyle;rounded=0;orthogonalLoop=1;jettySize=auto;html=1;" edge="1" parent="wSdRm8vFtxA8m4r3ZrGF-1" source="FJkoKa2zP6TrioZ-x6MN-11" target="FJkoKa2zP6TrioZ-x6MN-10">
          <mxGeometry relative="1" as="geometry"/>
        </mxCell>
        <mxCell id="FJkoKa2zP6TrioZ-x6MN-11" value="Leo Profiler {&lt;br&gt;&amp;nbsp; &amp;nbsp; BPMbehavior bpm;&lt;br&gt;&amp;nbsp; &amp;nbsp; PMCbehavior pmc;&lt;br&gt;}" style="rounded=0;whiteSpace=wrap;html=1;align=left;verticalAlign=top;fillColor=#fff2cc;strokeColor=#d6b656;" parent="wSdRm8vFtxA8m4r3ZrGF-1" vertex="1">
          <mxGeometry x="240" y="280" width="160" height="120" as="geometry"/>
        </mxCell>
        <mxCell id="jU3aj9pWKFB-8NXjvSev-10" value="" style="edgeStyle=orthogonalEdgeStyle;rounded=0;orthogonalLoop=1;jettySize=auto;html=1;" edge="1" parent="wSdRm8vFtxA8m4r3ZrGF-1" source="FJkoKa2zP6TrioZ-x6MN-12" target="jU3aj9pWKFB-8NXjvSev-5">
          <mxGeometry relative="1" as="geometry"/>
        </mxCell>
        <mxCell id="FJkoKa2zP6TrioZ-x6MN-12" value="XXX Profiler {&lt;br&gt;&amp;nbsp; &amp;nbsp;&amp;nbsp;PMCbehavior pmc;&lt;br&gt;&amp;nbsp; &amp;nbsp; TDbehavior td;&lt;br&gt;}" style="rounded=0;whiteSpace=wrap;html=1;align=left;verticalAlign=top;fillColor=#fff2cc;strokeColor=#d6b656;" parent="wSdRm8vFtxA8m4r3ZrGF-1" vertex="1">
          <mxGeometry x="720" y="280" width="160" height="120" as="geometry"/>
        </mxCell>
        <mxCell id="FJkoKa2zP6TrioZ-x6MN-13" value="EF Profiler {&lt;br&gt;&amp;nbsp; &amp;nbsp; startProfile();&lt;br&gt;&amp;nbsp; &amp;nbsp;&amp;nbsp;stopProfile();&lt;br&gt;&amp;nbsp; &amp;nbsp; generate();&lt;br&gt;}" style="rounded=0;whiteSpace=wrap;html=1;align=left;verticalAlign=top;fillColor=#e1d5e7;strokeColor=#9673a6;" parent="wSdRm8vFtxA8m4r3ZrGF-1" vertex="1">
          <mxGeometry x="720" y="120" width="160" height="80" as="geometry"/>
        </mxCell>
        <mxCell id="jU3aj9pWKFB-8NXjvSev-0" value="" style="edgeStyle=orthogonalEdgeStyle;rounded=0;orthogonalLoop=1;jettySize=auto;html=1;" edge="1" source="jU3aj9pWKFB-8NXjvSev-2" target="jU3aj9pWKFB-8NXjvSev-4" parent="wSdRm8vFtxA8m4r3ZrGF-1">
          <mxGeometry relative="1" as="geometry"/>
        </mxCell>
        <mxCell id="jU3aj9pWKFB-8NXjvSev-1" style="edgeStyle=orthogonalEdgeStyle;rounded=0;orthogonalLoop=1;jettySize=auto;html=1;exitX=0.5;exitY=1;exitDx=0;exitDy=0;entryX=0.5;entryY=0;entryDx=0;entryDy=0;" edge="1" source="jU3aj9pWKFB-8NXjvSev-2" target="jU3aj9pWKFB-8NXjvSev-3" parent="wSdRm8vFtxA8m4r3ZrGF-1">
          <mxGeometry relative="1" as="geometry"/>
        </mxCell>
        <mxCell id="jU3aj9pWKFB-8NXjvSev-2" value="TraceDebugger behavior&lt;br&gt;1. TDFuncA() = 0;&lt;br&gt;2. TDFuncB() = 0;&lt;br&gt;3. TDFuncC() = 0;" style="rounded=0;whiteSpace=wrap;html=1;labelPosition=center;verticalLabelPosition=middle;align=left;verticalAlign=top;fillColor=#e1d5e7;strokeColor=#9673a6;" vertex="1" parent="wSdRm8vFtxA8m4r3ZrGF-1">
          <mxGeometry x="1200" y="480" width="160" height="80" as="geometry"/>
        </mxCell>
        <mxCell id="jU3aj9pWKFB-8NXjvSev-3" value="B TD behavior&lt;br&gt;1. TDFuncA();&lt;br&gt;2. TDFuncB();&lt;br&gt;3. TDFuncC();" style="rounded=0;whiteSpace=wrap;html=1;align=left;verticalAlign=top;fillColor=#fff2cc;strokeColor=#d6b656;" vertex="1" parent="wSdRm8vFtxA8m4r3ZrGF-1">
          <mxGeometry x="1320" y="640" width="160" height="80" as="geometry"/>
        </mxCell>
        <mxCell id="jU3aj9pWKFB-8NXjvSev-4" value="A TD behavior&lt;br&gt;1. TDFuncA();&lt;br&gt;2. TDFuncB();&lt;br&gt;3. TDFuncC();" style="rounded=0;whiteSpace=wrap;html=1;align=left;verticalAlign=top;fillColor=#fff2cc;strokeColor=#d6b656;" vertex="1" parent="wSdRm8vFtxA8m4r3ZrGF-1">
          <mxGeometry x="1080" y="640" width="160" height="80" as="geometry"/>
        </mxCell>
        <mxCell id="jU3aj9pWKFB-8NXjvSev-7" value="" style="edgeStyle=orthogonalEdgeStyle;rounded=0;orthogonalLoop=1;jettySize=auto;html=1;" edge="1" parent="wSdRm8vFtxA8m4r3ZrGF-1" source="jU3aj9pWKFB-8NXjvSev-5" target="jU3aj9pWKFB-8NXjvSev-6">
          <mxGeometry relative="1" as="geometry"/>
        </mxCell>
        <mxCell id="jU3aj9pWKFB-8NXjvSev-5" value="YYY Profiler {&lt;br&gt;&amp;nbsp; &amp;nbsp; BPMbehavior bpm;&lt;br&gt;&amp;nbsp; &amp;nbsp; PMCbehavior pmc;&lt;br&gt;&amp;nbsp; &amp;nbsp; TDbehavior td;&lt;br&gt;&amp;nbsp; &amp;nbsp; TFbehavior tf;&lt;br&gt;}" style="rounded=0;whiteSpace=wrap;html=1;align=left;verticalAlign=top;fillColor=#fff2cc;strokeColor=#d6b656;" vertex="1" parent="wSdRm8vFtxA8m4r3ZrGF-1">
          <mxGeometry x="960" y="280" width="160" height="120" as="geometry"/>
        </mxCell>
        <mxCell id="jU3aj9pWKFB-8NXjvSev-6" value="YYY Profiler {&lt;br&gt;&amp;nbsp; &amp;nbsp; BPMbehavior bpm;&lt;br&gt;&amp;nbsp; &amp;nbsp; PMCbehavior pmc;&lt;br&gt;&amp;nbsp; &amp;nbsp; TDbehavior td;&lt;br&gt;&amp;nbsp; &amp;nbsp; TFbehavior tf;&lt;br&gt;&amp;nbsp; &amp;nbsp; XXbehavior xx;&lt;br&gt;}" style="rounded=0;whiteSpace=wrap;html=1;align=left;verticalAlign=top;fillColor=#fff2cc;strokeColor=#d6b656;" vertex="1" parent="wSdRm8vFtxA8m4r3ZrGF-1">
          <mxGeometry x="1200" y="280" width="160" height="120" as="geometry"/>
        </mxCell>
        <mxCell id="jU3aj9pWKFB-8NXjvSev-11" value="" style="endArrow=none;dashed=1;html=1;" edge="1" parent="wSdRm8vFtxA8m4r3ZrGF-1">
          <mxGeometry width="50" height="50" relative="1" as="geometry">
            <mxPoint y="440" as="sourcePoint"/>
            <mxPoint x="1422" y="440" as="targetPoint"/>
          </mxGeometry>
        </mxCell>
        <mxCell id="jU3aj9pWKFB-8NXjvSev-12" value="NO BPM/PMC/TD/XX implementation&lt;br&gt;1. can&#39;t change BPM/PMC implement easily&lt;br&gt;2. BPM/PMC function could be reused in XXX/YYY&amp;nbsp; release&lt;br&gt;2. construct with correct behavior and could change behavior dynamic" style="text;html=1;resizable=0;autosize=1;align=left;verticalAlign=middle;points=[];fillColor=none;strokeColor=none;rounded=0;" vertex="1" parent="wSdRm8vFtxA8m4r3ZrGF-1">
          <mxGeometry x="5" y="380" width="390" height="60" as="geometry"/>
        </mxCell>
        <mxCell id="jU3aj9pWKFB-8NXjvSev-13" value="&lt;span&gt;BPM/PMC/TD/XX implementation&lt;/span&gt;" style="text;html=1;resizable=0;autosize=1;align=left;verticalAlign=middle;points=[];fillColor=none;strokeColor=none;rounded=0;fontStyle=0" vertex="1" parent="wSdRm8vFtxA8m4r3ZrGF-1">
          <mxGeometry x="5" y="440" width="200" height="20" as="geometry"/>
        </mxCell>
        <mxCell id="jU3aj9pWKFB-8NXjvSev-17" value="MAIN" style="rounded=1;whiteSpace=wrap;html=1;align=center;" vertex="1" parent="wSdRm8vFtxA8m4r3ZrGF-1">
          <mxGeometry x="500" y="70" width="120" height="60" as="geometry"/>
        </mxCell>
        <mxCell id="jU3aj9pWKFB-8NXjvSev-24" value="" style="edgeStyle=segmentEdgeStyle;endArrow=classic;html=1;exitX=0.5;exitY=1;exitDx=0;exitDy=0;entryX=0;entryY=0.5;entryDx=0;entryDy=0;" edge="1" parent="wSdRm8vFtxA8m4r3ZrGF-1" source="jU3aj9pWKFB-8NXjvSev-17" target="FJkoKa2zP6TrioZ-x6MN-13">
          <mxGeometry width="50" height="50" relative="1" as="geometry">
            <mxPoint x="630" y="220" as="sourcePoint"/>
            <mxPoint x="680" y="170" as="targetPoint"/>
            <Array as="points">
              <mxPoint x="560" y="160"/>
            </Array>
          </mxGeometry>
        </mxCell>
      </root>
    </mxGraphModel>
  </diagram>
</mxfile>
